<svg width="533" height="173" viewBox="0 0 533 173" fill="none" xmlns="http://www.w3.org/2000/svg">
<path d="M24.751 56.4402H34.514L55.5788 106.741L76.6966 56.4402H86.4596L59.9297 118.043H51.2279L24.751 56.4402ZM107.633 41.5304L107.686 41.6365C107.686 43.2283 107.102 44.6078 105.935 45.7221C104.767 46.8363 103.388 47.42 101.796 47.42C100.151 47.42 98.7186 46.8363 97.5513 45.7221C96.384 44.6078 95.8003 43.2283 95.8003 41.6365C95.8003 40.0977 96.384 38.7712 97.5513 37.657C98.7186 36.5427 100.151 35.9591 101.796 35.9591C103.441 35.9591 104.82 36.4897 105.935 37.5509C107.049 38.6121 107.633 39.9386 107.633 41.5304ZM97.339 118.149V56.5463H106.041V118.149H97.339ZM166.054 118.043L166.107 117.99C166.107 117.035 166.107 115.549 166.054 113.586C166.001 111.622 166.001 110.137 166.001 109.129C161.597 115.655 154.327 118.892 144.193 118.892C137.136 118.892 131.406 117.194 126.949 113.745C122.492 110.296 120.263 105.574 120.263 99.5779C120.263 93.476 122.757 88.5945 127.691 84.8803C132.626 81.1661 138.94 79.309 146.634 79.309C152.789 79.309 159.209 80.2641 165.948 82.1212C166.001 75.7009 164.621 70.9255 161.809 67.795C158.997 64.6645 154.381 63.0727 147.96 63.0727C140.903 63.0727 134.112 64.6645 127.585 67.8481L124.879 60.8972C132.997 56.9708 140.956 55.0076 148.809 55.0076C165.948 55.0076 174.543 63.9747 174.543 81.962V118.043H166.054ZM145.573 111.676L145.466 111.622C147.642 111.622 149.87 111.304 152.152 110.72C154.434 110.137 156.609 109.235 158.731 108.067C160.854 106.9 162.552 105.202 163.878 103.027C165.205 100.851 165.895 98.3575 165.895 95.5453V88.9128C159.793 87.0557 153.797 86.1007 147.854 86.1007C142.336 86.1007 137.879 87.321 134.483 89.7618C131.087 92.2026 129.389 95.28 129.389 99.0473C129.389 103.133 130.875 106.263 133.846 108.439C136.818 110.614 140.744 111.676 145.573 111.676Z" fill="#F8F8F8"/>
<path d="M241.039 53.3975L249.953 53.4505V108.845C249.953 129.485 239.607 139.832 218.966 139.832C208.514 139.832 199.706 137.126 192.543 131.767L196.575 125.134C202.783 129.645 210.105 131.873 218.489 131.873C226.076 131.873 231.754 129.963 235.468 126.143C239.182 122.322 241.039 116.433 241.039 108.527V104.494C235.999 112.294 228.358 116.22 218.118 116.273C209.946 116.273 203.102 113.355 197.583 107.519C192.065 101.682 189.306 93.9352 189.306 84.2783C189.306 74.6214 192.065 66.8747 197.583 60.985C203.102 55.0954 209.946 52.1771 218.118 52.1771C228.358 52.1771 235.999 56.1035 241.039 63.9033V53.3975ZM220.505 108.102L220.452 108.049C226.872 108.049 231.966 105.768 235.68 101.204C239.395 96.6413 241.252 90.9639 241.252 84.1722C241.252 77.3805 239.448 71.7031 235.786 67.193C232.125 62.6829 227.032 60.4014 220.505 60.4014C213.926 60.4014 208.62 62.6829 204.587 67.2461C200.555 71.8092 198.538 77.4336 198.538 84.1722C198.538 90.8047 200.555 96.429 204.587 101.098C208.62 105.768 213.926 108.102 220.505 108.102ZM295.746 116.22L295.64 116.539C285.506 116.539 277.494 113.62 271.604 107.837C265.714 102.053 262.796 94.3066 262.796 84.6497C262.796 74.4092 265.714 66.5033 271.604 60.8789C277.494 55.2546 284.604 52.4424 292.934 52.4424C302.007 52.4424 309.277 55.2546 314.742 60.8789C320.207 66.5033 322.966 74.5153 322.966 84.862C322.966 85.8171 322.913 87.1966 322.754 89.0537H272.082C272.347 94.3597 274.628 98.9229 278.926 102.796C283.224 106.67 288.848 108.58 295.799 108.58C299.248 108.58 302.538 108.049 305.668 106.988C308.799 105.927 311.028 104.866 312.407 103.857L314.476 102.213L319.358 107.572C319.146 107.784 318.827 108.102 318.403 108.474C317.978 108.845 317.023 109.535 315.591 110.543C314.158 111.551 312.566 112.453 310.868 113.196C309.17 113.939 306.942 114.629 304.236 115.265C301.53 115.902 298.718 116.22 295.746 116.22ZM292.934 60.6667L292.881 60.7728C286.779 60.7728 281.792 62.7891 277.865 66.8216C273.939 70.8542 271.975 75.7887 271.975 81.6784H313.521C313.521 75.7357 311.664 70.748 307.95 66.7155C304.236 62.6829 299.248 60.6667 292.934 60.6667ZM368.493 52.2832L368.44 52.1771C375.497 52.1771 381.175 54.5117 385.526 59.181C389.877 63.8503 392.052 70.0583 392.052 77.8581V114.894H383.35V80.1396C383.35 73.7194 381.758 68.7848 378.628 65.389C375.497 61.9932 371.2 60.2952 365.734 60.2952C359.739 60.2952 354.751 62.2054 350.825 66.0257C346.898 69.846 344.935 74.6214 344.935 80.3519V115H336.127V53.3975H344.935V64.3809C347.535 60.985 350.825 58.1198 354.804 55.7852C358.784 53.4505 363.347 52.2832 368.493 52.2832ZM420.707 61.4095L420.654 100.143C420.654 102.849 421.343 104.866 422.723 106.245C424.102 107.625 426.013 108.314 428.4 108.314C429.621 108.314 430.841 108.208 432.008 107.943C433.176 107.678 434.025 107.412 434.555 107.147L435.404 106.67L437.58 113.408C434.874 115.212 431.265 116.114 426.755 116.167C422.139 116.167 418.531 114.894 415.878 112.4C413.225 109.906 411.899 106.457 411.899 102.053V61.4095H405.054V59.3402L420.229 41.8835H420.707V53.3975H435.776V61.4095H420.707ZM476.528 116.22L476.422 116.539C466.287 116.539 458.275 113.62 452.385 107.837C446.496 102.053 443.577 94.3066 443.577 84.6497C443.577 74.4092 446.496 66.5033 452.385 60.8789C458.275 55.2546 465.385 52.4424 473.716 52.4424C482.789 52.4424 490.058 55.2546 495.523 60.8789C500.988 66.5033 503.747 74.5153 503.747 84.862C503.747 85.8171 503.694 87.1966 503.535 89.0537H452.863C453.128 94.3597 455.41 98.9229 459.708 102.796C464.006 106.67 469.63 108.58 476.581 108.58C480.03 108.58 483.319 108.049 486.45 106.988C489.58 105.927 491.809 104.866 493.188 103.857L495.258 102.213L500.139 107.572C499.927 107.784 499.609 108.102 499.184 108.474C498.76 108.845 497.805 109.535 496.372 110.543C494.939 111.551 493.348 112.453 491.65 113.196C489.952 113.939 487.723 114.629 485.017 115.265C482.311 115.902 479.499 116.22 476.528 116.22ZM473.716 60.6667L473.662 60.7728C467.561 60.7728 462.573 62.7891 458.647 66.8216C454.72 70.8542 452.757 75.7887 452.757 81.6784H494.303C494.303 75.7357 492.446 70.748 488.731 66.7155C485.017 62.6829 480.03 60.6667 473.716 60.6667Z" fill="#F8F8F8"/>
<path d="M410.565 26.6626C419.091 27.1136 431.399 19.1986 436.128 30.1442C429.877 33.0238 423.296 35.1439 416.555 36.6263C410.485 43.4355 405.746 49.8378 398.211 57.1114C399.003 51.128 400.027 45.1811 401.052 39.2342C393.728 40.5971 386.298 41.3979 378.846 41.0682C377.005 36.0747 375.088 30.9966 374.961 25.6099C378.063 28.7181 380.902 32.0786 384.019 35.2198C388.474 35.0279 392.628 32.8844 396.878 31.6815C391.183 24.5161 380.069 20.6937 377.787 11.531C388.99 15.963 399.297 22.3964 410.565 26.6626Z" fill="#F8F8F8"/>
<path d="M153.14 135C159.597 131.575 167.047 126 174 123C163.073 137.5 128.378 156.095 104.538 163.066C74.8326 170.705 54.3291 170.006 25 157.208C25 157.208 25 149.772 25 138.223C46.3645 146.56 68.0116 153.251 89.82 152.053C111.346 151.579 132.273 146.069 153.14 135Z" fill="#F8F8F8"/>
</svg>
